# xmcd CD database file
#
# Track frame offsets:
#	150
#	11508
#	30422
#	44405
#	56798
#	66082
#	80056
#	92100
#	109277
#	121112
#	138628
#	156474
#	165568
#	178394
#	195920
#	223868
#	243520
#	258506
#	273442
#	289443
#	301740
#	318108
#	330979
#
# Disc length: 4584 seconds
#
# Revision: 0
# Processed by: cddbd v1.5.2PL0 Copyright (c) Steve Scherf et al.
# Submitted via: CDex 1.51
#
DISCID=5211e617
DTITLE=Something Swingin' Latino - Something Swingin' Latino
DYEAR=2006
DGENRE=Jazz
TTITLE0=Astrud Gilberto - The Shadow Of Your Smile
TTITLE1=Joao Gilberto - Triste
TTITLE2=John Hendricks - You And I (Voce E Eu)
TTITLE3=Billy Eckstine - Felicidade
TTITLE4=Julie London - Desafinado (Slightly Out Of Tune)
TTITLE5=Louie Ramirez and His Orchestra - Manha De Carnival
TTITLE6=Quincy Jones and His Orchestra - Soul Bossa Nova
TTITLE7=Ella Fitzgerald - Mas Que Nada
TTITLE8=Antonio Carlos Jobim - She'S A Carioca
TTITLE9=Everything But The Girl - Corcovado (Quiet Nights Of Quiet Stars)
TTITLE10=Ive Mendes - If You Leave Me Now
TTITLE11=Quincy Jones - Samba De Una Nota So
TTITLE12=Herbie Mann - Baja
TTITLE13=Eliane Elias - Garota De Ipanema (Girl From Ipanema)
TTITLE14=Milton Nascimento - Only A Dream In Rio
TTITLE15=Sergio Mendes - So Many Stars
TTITLE16=Magda Navarrete and Noche De Boleros - Sabor A Mi
TTITLE17=Matt Monroe - Days Of Wine And Roses
TTITLE18=Eliane Elias - Dreamer (Vivo Sonhando)
TTITLE19=Astrud Gilberto - Meditation
TTITLE20=Antonio Carlos Jobim - Amor Em Paz (Once I Loved)
TTITLE21=Tito Puente - Mambazooka
TTITLE22=Carmen Miranda - South American Way
EXTD=YEAR: 2006
EXTT0=
EXTT1=
EXTT2=
EXTT3=
EXTT4=
EXTT5=
EXTT6=
EXTT7=
EXTT8=
EXTT9=
EXTT10=
EXTT11=
EXTT12=
EXTT13=
EXTT14=
EXTT15=
EXTT16=
EXTT17=
EXTT18=
EXTT19=
EXTT20=
EXTT21=
EXTT22=
PLAYORDER=
